# xmcd
#
# Track frame offsets:
#	182
#	11072
#	26837
#	43442
#	61335
#	76787
#	90845
#	100527
#	117232
#	129132
#	142627
#
# Disc length: 2196 seconds
#
# Revision: 0
# Processed by: cddbd v1.4b42PL1 Copyright (c) Steve Scherf et al.
# Submitted via: EasyCDDAExtractor 4.5.0.2
#
DISCID=7a08920b
DTITLE=Old Dogs - Volume One
DYEAR=1998
DGENRE=Country
TTITLE0=Old Dogs
TTITLE1=Come Back When You're Younger
TTITLE2=I Don't Do It No More
TTITLE3=She'd Rather Be Homeless
TTITLE4=Cut The Mustard
TTITLE5=Young Man's Job
TTITLE6=When I Was
TTITLE7=Couch Potato
TTITLE8=Hard When It Ain't
TTITLE9=Jittabug
TTITLE10=Me And Jimmie Rodgers
EXTD=
EXTT0=
EXTT1=
EXTT2=
EXTT3=
EXTT4=
EXTT5=
EXTT6=
EXTT7=
EXTT8=
EXTT9=
EXTT10=
PLAYORDER=
